<svg id="svg" version="1.1" xmlns="http://www.w3.org/2000/svg" xmlns:xlink="http://www.w3.org/1999/xlink" width="400" height="400" viewBox="0, 0, 400,400"><g id="svgg"><path id="path0" d="M122.500 10.011 C 122.005 10.211,121.600 10.549,121.600 10.764 C 121.600 10.982,119.536 11.246,116.900 11.365 C 107.510 11.788,105.746 12.005,104.844 12.845 C 104.380 13.277,104.000 13.444,104.000 13.216 C 104.000 12.456,101.004 12.751,100.092 13.600 C 99.527 14.126,98.681 14.400,97.617 14.400 C 96.728 14.400,96.000 14.580,96.000 14.800 C 96.000 15.020,95.280 15.200,94.400 15.200 C 93.520 15.200,92.800 15.356,92.800 15.547 C 92.800 15.738,92.041 15.996,91.114 16.121 C 90.187 16.245,89.222 16.629,88.970 16.973 C 88.718 17.318,88.047 17.600,87.480 17.600 C 86.912 17.600,86.336 17.780,86.200 18.000 C 86.064 18.220,85.377 18.400,84.673 18.400 C 83.826 18.400,83.223 18.671,82.893 19.200 C 82.618 19.640,82.035 20.000,81.597 20.000 C 81.158 20.000,80.800 20.180,80.800 20.400 C 80.800 20.620,80.271 20.800,79.624 20.800 C 78.977 20.800,78.336 20.980,78.200 21.200 C 78.064 21.420,77.497 21.600,76.939 21.600 C 76.262 21.600,75.856 21.865,75.716 22.400 C 75.600 22.843,75.170 23.200,74.753 23.200 C 74.339 23.200,74.000 23.380,74.000 23.600 C 74.000 23.820,73.460 24.000,72.800 24.000 C 72.140 24.000,71.600 24.156,71.600 24.346 C 71.600 24.536,70.295 25.354,68.700 26.164 C 63.627 28.738,62.249 29.545,61.147 30.585 C 60.556 31.143,59.876 31.600,59.636 31.600 C 59.396 31.600,59.200 31.780,59.200 32.000 C 59.200 32.220,58.840 32.400,58.400 32.400 C 57.867 32.400,57.600 32.667,57.600 33.200 C 57.600 33.733,57.333 34.000,56.800 34.000 C 56.360 34.000,56.000 34.180,56.000 34.400 C 56.000 34.620,55.702 34.800,55.338 34.800 C 54.974 34.800,53.991 35.520,53.154 36.400 C 52.317 37.280,51.431 38.000,51.185 38.000 C 50.939 38.000,50.046 38.720,49.200 39.600 C 48.354 40.480,47.546 41.200,47.403 41.200 C 47.260 41.200,46.018 42.370,44.644 43.800 C 43.269 45.230,41.932 46.400,41.672 46.400 C 41.412 46.400,41.200 46.678,41.200 47.018 C 41.200 47.721,39.458 49.600,38.806 49.600 C 38.569 49.600,38.262 49.895,38.123 50.256 C 37.985 50.617,36.730 52.081,35.336 53.511 C 33.941 54.940,32.800 56.252,32.800 56.426 C 32.800 56.600,32.575 56.985,32.300 57.281 C 31.149 58.521,29.200 61.179,29.200 61.510 C 29.200 61.706,28.665 62.392,28.011 63.033 C 27.357 63.675,26.817 64.403,26.811 64.651 C 26.805 64.899,26.530 65.326,26.200 65.600 C 25.870 65.874,25.600 66.426,25.600 66.826 C 25.600 67.227,25.285 67.792,24.900 68.082 C 24.086 68.695,23.200 70.164,23.200 70.898 C 23.200 71.178,22.840 71.632,22.400 71.907 C 21.960 72.182,21.600 72.765,21.600 73.203 C 21.600 73.642,21.420 74.000,21.200 74.000 C 20.980 74.000,20.800 74.362,20.800 74.805 C 20.800 75.804,20.027 77.219,19.100 77.918 C 18.715 78.208,18.400 78.785,18.400 79.199 C 18.400 79.614,18.220 80.064,18.000 80.200 C 17.780 80.336,17.600 80.887,17.600 81.424 C 17.600 81.961,17.453 82.400,17.274 82.400 C 16.708 82.400,15.200 85.626,15.200 86.838 C 15.200 87.477,15.020 88.000,14.800 88.000 C 14.580 88.000,14.400 88.540,14.400 89.200 C 14.400 89.959,14.195 90.400,13.843 90.400 C 13.198 90.400,12.800 91.252,12.800 92.633 C 12.800 93.165,12.620 93.600,12.400 93.600 C 12.180 93.600,12.000 94.219,12.000 94.976 C 12.000 95.733,11.820 96.464,11.600 96.600 C 11.380 96.736,11.200 97.582,11.200 98.480 C 11.200 99.495,10.965 100.284,10.578 100.567 C 10.001 100.989,9.548 102.961,8.942 107.693 C 8.809 108.734,8.452 109.791,8.150 110.042 C 7.758 110.366,7.600 111.528,7.600 114.073 C 7.600 116.354,7.455 117.558,7.200 117.400 C 6.939 117.239,6.800 119.729,6.800 124.576 C 6.800 129.259,6.652 132.000,6.400 132.000 C 6.136 132.000,6.000 144.133,6.000 167.600 C 6.000 191.067,6.136 203.200,6.400 203.200 C 6.652 203.200,6.800 205.925,6.800 210.576 C 6.800 215.063,6.957 218.050,7.200 218.200 C 7.420 218.336,7.600 219.868,7.600 221.604 C 7.600 223.837,7.759 224.854,8.142 225.080 C 8.448 225.261,8.796 226.446,8.940 227.800 C 9.382 231.944,9.946 234.477,10.584 235.182 C 10.923 235.557,11.200 236.423,11.200 237.108 C 11.200 237.793,11.380 238.464,11.600 238.600 C 11.820 238.736,12.000 239.467,12.000 240.224 C 12.000 240.981,12.180 241.600,12.400 241.600 C 12.620 241.600,12.800 242.247,12.800 243.037 C 12.800 244.138,12.987 244.524,13.600 244.684 C 14.202 244.842,14.400 245.230,14.400 246.252 C 14.400 246.999,14.560 247.923,14.756 248.305 C 14.952 248.687,15.520 249.855,16.019 250.900 C 16.518 251.945,17.077 252.800,17.263 252.800 C 17.448 252.800,17.600 253.340,17.600 254.000 C 17.600 254.660,17.780 255.200,18.000 255.200 C 18.220 255.200,18.400 255.648,18.400 256.197 C 18.400 256.760,18.748 257.410,19.200 257.693 C 19.640 257.968,20.000 258.383,20.000 258.616 C 20.000 259.277,20.965 261.193,21.300 261.197 C 21.465 261.199,21.600 261.558,21.600 261.997 C 21.600 262.435,21.960 263.018,22.400 263.293 C 22.840 263.568,23.200 264.154,23.200 264.596 C 23.201 265.038,23.662 265.936,24.225 266.590 C 24.787 267.245,25.541 268.415,25.898 269.190 C 26.255 269.966,27.069 271.207,27.705 271.949 C 28.341 272.691,29.057 273.726,29.295 274.249 C 29.533 274.772,29.989 275.200,30.307 275.200 C 30.640 275.200,30.794 275.439,30.669 275.764 C 30.548 276.079,30.882 276.650,31.426 277.059 C 31.962 277.461,32.400 278.073,32.400 278.419 C 32.400 278.765,33.116 279.667,33.991 280.424 C 34.866 281.181,35.586 282.031,35.591 282.313 C 35.596 282.594,35.915 282.944,36.300 283.090 C 37.220 283.439,38.000 284.227,38.000 284.809 C 38.000 285.483,45.123 292.400,45.817 292.400 C 46.138 292.400,46.400 292.760,46.400 293.200 C 46.400 293.666,46.667 294.000,47.040 294.000 C 47.391 294.000,48.183 294.540,48.800 295.200 C 49.417 295.860,50.119 296.400,50.360 296.400 C 50.602 296.400,50.800 296.550,50.800 296.732 C 50.800 296.915,51.235 297.298,51.766 297.582 C 52.298 297.866,52.821 298.437,52.929 298.850 C 53.037 299.262,53.412 299.600,53.763 299.600 C 54.113 299.600,54.400 299.780,54.400 300.000 C 54.400 300.220,54.683 300.400,55.029 300.400 C 55.759 300.400,56.800 301.338,56.800 301.995 C 56.800 302.244,56.980 302.336,57.200 302.200 C 57.420 302.064,57.600 302.143,57.600 302.376 C 57.600 302.609,57.917 302.800,58.305 302.800 C 58.693 302.800,59.316 303.208,59.691 303.707 C 60.065 304.205,61.455 305.150,62.779 305.807 C 64.103 306.463,65.190 307.225,65.193 307.500 C 65.197 307.775,65.560 308.000,66.000 308.000 C 66.440 308.000,66.800 308.180,66.800 308.400 C 66.800 308.620,67.340 308.800,68.000 308.800 C 68.660 308.800,69.200 308.980,69.200 309.200 C 69.200 309.420,69.560 309.600,70.000 309.600 C 70.533 309.600,70.800 309.867,70.800 310.400 C 70.800 311.022,71.067 311.200,72.000 311.200 C 72.660 311.200,73.200 311.380,73.200 311.600 C 73.200 311.820,73.517 312.000,73.904 312.000 C 74.291 312.000,74.832 312.360,75.107 312.800 C 75.390 313.252,76.040 313.600,76.603 313.600 C 77.152 313.600,77.600 313.780,77.600 314.000 C 77.600 314.220,78.140 314.400,78.800 314.400 C 79.460 314.400,80.000 314.580,80.000 314.800 C 80.000 315.020,80.519 315.200,81.153 315.200 C 81.970 315.200,82.368 315.433,82.516 316.000 C 82.667 316.578,83.062 316.800,83.939 316.800 C 84.607 316.800,85.264 316.980,85.400 317.200 C 85.536 317.420,86.157 317.600,86.781 317.600 C 87.455 317.600,88.015 317.862,88.162 318.246 C 88.330 318.683,88.732 318.830,89.405 318.701 C 89.952 318.597,90.400 318.637,90.400 318.791 C 90.400 319.258,92.362 320.000,93.595 320.000 C 94.232 320.000,94.864 320.180,95.000 320.400 C 95.136 320.620,95.982 320.800,96.880 320.800 C 97.889 320.800,98.684 321.035,98.963 321.417 C 99.223 321.773,100.466 322.183,101.893 322.385 C 103.256 322.578,104.558 322.850,104.786 322.991 C 105.317 323.319,105.328 324.800,104.800 324.800 C 104.580 324.800,104.400 325.238,104.400 325.773 C 104.400 326.395,104.111 326.838,103.600 327.000 C 103.096 327.160,102.800 327.605,102.800 328.203 C 102.800 328.726,102.620 329.264,102.400 329.400 C 102.180 329.536,102.000 330.047,102.000 330.535 C 102.000 331.024,101.640 331.683,101.200 332.000 C 100.760 332.317,100.400 332.886,100.400 333.265 C 100.400 333.643,100.220 334.064,100.000 334.200 C 99.780 334.336,99.600 334.887,99.600 335.424 C 99.600 335.961,99.420 336.400,99.200 336.400 C 98.980 336.400,98.800 336.940,98.800 337.600 C 98.800 338.391,98.599 338.800,98.210 338.800 C 97.761 338.800,97.680 339.102,97.872 340.062 C 98.055 340.976,97.995 341.244,97.654 341.033 C 97.354 340.848,96.971 341.251,96.598 342.144 C 96.276 342.915,95.826 343.660,95.600 343.800 C 95.373 343.941,95.291 344.224,95.419 344.430 C 95.546 344.637,95.304 345.299,94.880 345.903 C 94.456 346.506,93.860 347.720,93.556 348.600 C 93.253 349.480,92.778 350.344,92.502 350.520 C 92.226 350.696,92.000 351.281,92.000 351.820 C 92.000 352.359,91.820 352.800,91.600 352.800 C 91.380 352.800,91.200 353.340,91.200 354.000 C 91.200 354.660,91.020 355.200,90.800 355.200 C 90.580 355.200,90.400 355.434,90.400 355.720 C 90.400 356.456,89.459 358.393,89.100 358.397 C 88.935 358.399,88.800 358.850,88.800 359.400 C 88.800 359.950,88.620 360.400,88.400 360.400 C 88.180 360.400,88.000 360.732,88.000 361.138 C 88.000 361.544,87.640 362.202,87.200 362.600 C 86.760 362.998,86.400 363.656,86.400 364.062 C 86.400 364.468,86.199 364.800,85.953 364.800 C 85.693 364.800,85.586 365.216,85.697 365.797 C 85.806 366.365,85.654 366.990,85.344 367.246 C 85.045 367.495,84.800 367.993,84.800 368.353 C 84.800 368.713,84.440 369.232,84.000 369.507 C 83.490 369.826,83.200 370.440,83.200 371.203 C 83.200 371.862,83.020 372.400,82.800 372.400 C 82.580 372.400,82.400 372.839,82.400 373.376 C 82.400 373.913,82.220 374.464,82.000 374.600 C 81.780 374.736,81.600 375.197,81.600 375.624 C 81.600 376.051,81.342 376.400,81.027 376.400 C 80.712 376.400,80.340 376.805,80.202 377.300 C 79.897 378.390,79.236 379.984,78.751 380.800 C 78.555 381.130,78.196 381.850,77.954 382.400 C 77.712 382.950,77.353 383.713,77.157 384.095 C 76.961 384.477,76.800 385.001,76.800 385.260 C 76.800 386.011,75.479 388.800,75.123 388.800 C 74.945 388.800,74.800 389.160,74.800 389.600 C 74.800 390.040,74.620 390.400,74.400 390.400 C 74.180 390.400,74.000 391.210,74.000 392.200 L 74.000 394.000 75.712 394.000 C 76.965 394.000,77.578 393.786,78.000 393.200 C 78.341 392.727,79.035 392.400,79.701 392.400 C 80.331 392.400,80.926 392.136,81.055 391.800 C 81.182 391.470,81.616 391.200,82.019 391.200 C 82.423 391.200,82.864 391.020,83.000 390.800 C 83.136 390.580,83.572 390.400,83.970 390.400 C 84.367 390.400,85.150 390.040,85.709 389.600 C 86.269 389.160,87.013 388.800,87.363 388.800 C 87.713 388.800,88.000 388.620,88.000 388.400 C 88.000 388.180,88.439 388.000,88.976 388.000 C 89.513 388.000,90.064 387.820,90.200 387.600 C 90.336 387.380,90.885 387.200,91.420 387.200 C 91.960 387.200,92.616 386.844,92.893 386.400 C 93.168 385.960,93.709 385.600,94.096 385.600 C 94.483 385.600,94.800 385.420,94.800 385.200 C 94.800 384.980,95.340 384.800,96.000 384.800 C 96.660 384.800,97.200 384.628,97.200 384.418 C 97.200 384.208,97.830 383.918,98.600 383.774 C 99.402 383.623,100.000 383.274,100.000 382.955 C 100.000 382.630,100.413 382.400,101.000 382.400 C 101.550 382.400,102.000 382.220,102.000 382.000 C 102.000 381.780,102.422 381.600,102.938 381.600 C 103.454 381.600,104.202 381.240,104.600 380.800 C 104.998 380.360,105.656 380.000,106.062 380.000 C 106.468 380.000,106.800 379.820,106.800 379.600 C 106.800 379.380,107.250 379.200,107.800 379.200 C 108.350 379.200,108.800 379.020,108.800 378.800 C 108.800 378.580,109.338 378.400,109.997 378.400 C 110.760 378.400,111.374 378.110,111.693 377.600 C 111.968 377.160,112.509 376.800,112.896 376.800 C 113.283 376.800,113.600 376.620,113.600 376.400 C 113.600 376.180,114.140 376.000,114.800 376.000 C 115.460 376.000,116.000 375.853,116.000 375.674 C 116.000 375.232,118.642 374.000,119.590 374.000 C 120.010 374.000,120.464 373.820,120.600 373.600 C 120.736 373.380,121.197 373.200,121.624 373.200 C 122.051 373.200,122.760 372.840,123.200 372.400 C 123.640 371.960,124.270 371.600,124.600 371.600 C 124.930 371.600,125.200 371.420,125.200 371.200 C 125.200 370.980,125.740 370.800,126.400 370.800 C 127.060 370.800,127.600 370.640,127.600 370.445 C 127.600 370.249,128.213 369.974,128.961 369.834 C 129.710 369.693,130.424 369.313,130.549 368.989 C 130.673 368.665,131.141 368.400,131.587 368.400 C 132.034 368.400,132.400 368.220,132.400 368.000 C 132.400 367.780,132.900 367.600,133.512 367.600 C 134.165 367.600,134.861 367.270,135.200 366.800 C 135.517 366.360,136.097 366.000,136.488 366.000 C 136.880 366.000,137.200 365.820,137.200 365.600 C 137.200 365.380,137.639 365.200,138.176 365.200 C 138.713 365.200,139.264 365.020,139.400 364.800 C 139.536 364.580,140.085 364.400,140.620 364.400 C 141.160 364.400,141.816 364.044,142.093 363.600 C 142.368 363.160,142.909 362.800,143.296 362.800 C 143.683 362.800,144.000 362.620,144.000 362.400 C 144.000 362.180,144.540 362.000,145.200 362.000 C 145.860 362.000,146.400 361.854,146.400 361.675 C 146.400 361.496,147.030 361.102,147.800 360.800 C 148.570 360.498,149.200 360.104,149.200 359.925 C 149.200 359.746,149.650 359.600,150.200 359.600 C 150.750 359.600,151.200 359.420,151.200 359.200 C 151.200 358.980,151.860 358.800,152.667 358.800 C 153.473 358.800,154.008 358.675,153.855 358.521 C 153.515 358.182,156.257 356.800,157.271 356.800 C 157.672 356.800,158.000 356.648,158.000 356.463 C 158.000 356.278,158.720 355.911,159.600 355.647 C 160.480 355.384,161.200 354.995,161.200 354.784 C 161.200 354.573,161.560 354.400,162.000 354.400 C 162.440 354.400,162.800 354.220,162.800 354.000 C 162.800 353.780,163.300 353.600,163.912 353.600 C 164.565 353.600,165.261 353.270,165.600 352.800 C 165.917 352.360,166.486 352.000,166.865 352.000 C 167.243 352.000,167.664 351.820,167.800 351.600 C 167.936 351.380,168.487 351.200,169.024 351.200 C 169.561 351.200,170.000 351.020,170.000 350.800 C 170.000 350.580,170.534 350.400,171.186 350.400 C 171.962 350.400,172.520 350.124,172.800 349.600 C 173.035 349.160,173.492 348.800,173.814 348.800 C 174.136 348.800,174.400 348.620,174.400 348.400 C 174.400 348.180,174.895 347.996,175.500 347.991 C 176.105 347.986,177.050 347.630,177.600 347.200 C 178.150 346.770,178.915 346.414,179.300 346.409 C 179.685 346.404,180.000 346.220,180.000 346.000 C 180.000 345.780,180.349 345.600,180.776 345.600 C 181.203 345.600,181.664 345.420,181.800 345.200 C 181.936 344.980,182.607 344.800,183.290 344.800 C 183.974 344.800,184.422 344.689,184.286 344.552 C 183.885 344.152,185.071 343.200,185.971 343.200 C 186.427 343.200,186.800 343.020,186.800 342.800 C 186.800 342.580,187.250 342.400,187.800 342.400 C 188.350 342.400,188.800 342.220,188.800 342.000 C 188.800 341.780,189.237 341.600,189.771 341.600 C 190.306 341.600,191.013 341.330,191.343 341.000 C 191.673 340.670,192.226 340.400,192.571 340.400 C 192.917 340.400,193.200 340.220,193.200 340.000 C 193.200 339.780,193.650 339.600,194.200 339.600 C 194.750 339.600,195.532 339.268,195.937 338.863 C 196.343 338.457,197.513 337.878,198.537 337.575 C 199.562 337.273,200.400 336.885,200.400 336.713 C 200.400 336.541,200.850 336.400,201.400 336.400 C 201.950 336.400,202.760 336.040,203.200 335.600 C 203.640 335.160,204.259 334.800,204.576 334.800 C 204.893 334.800,205.264 334.620,205.400 334.400 C 205.536 334.180,205.975 334.000,206.375 334.000 C 206.775 334.000,207.317 333.742,207.579 333.426 C 207.841 333.110,208.583 332.736,209.228 332.594 C 209.872 332.452,210.400 332.203,210.400 332.041 C 210.400 331.878,211.323 331.493,212.450 331.186 C 213.578 330.879,214.701 330.307,214.947 329.914 C 215.192 329.521,215.799 329.200,216.296 329.200 C 216.793 329.200,217.200 329.020,217.200 328.800 C 217.200 328.580,217.650 328.400,218.200 328.400 C 218.750 328.400,219.200 328.220,219.200 328.000 C 219.200 327.780,219.734 327.600,220.386 327.600 C 221.162 327.600,221.720 327.324,222.000 326.800 C 222.235 326.360,222.771 326.000,223.190 326.000 C 223.610 326.000,224.064 325.820,224.200 325.600 C 224.361 325.340,234.177 325.200,252.344 325.200 C 273.079 325.200,280.360 325.080,280.707 324.733 C 280.964 324.476,283.025 324.118,285.287 323.938 C 294.931 323.169,300.382 322.313,300.996 321.473 C 301.318 321.033,302.052 320.800,303.120 320.800 C 304.018 320.800,304.864 320.620,305.000 320.400 C 305.136 320.180,305.768 320.000,306.405 320.000 C 307.750 320.000,309.600 319.243,309.600 318.692 C 309.600 318.484,310.054 318.427,310.609 318.566 C 311.316 318.744,311.688 318.637,311.852 318.210 C 311.985 317.862,312.572 317.600,313.219 317.600 C 313.843 317.600,314.464 317.420,314.600 317.200 C 314.736 316.980,315.370 316.800,316.010 316.800 C 316.762 316.800,317.323 316.518,317.600 316.000 C 317.850 315.532,318.438 315.200,319.014 315.200 C 319.556 315.200,320.000 315.020,320.000 314.800 C 320.000 314.580,320.540 314.400,321.200 314.400 C 321.860 314.400,322.400 314.220,322.400 314.000 C 322.400 313.780,322.848 313.600,323.397 313.600 C 323.960 313.600,324.610 313.252,324.893 312.800 C 325.168 312.360,325.709 312.000,326.096 312.000 C 326.483 312.000,326.800 311.820,326.800 311.600 C 326.800 311.380,327.340 311.200,328.000 311.200 C 328.933 311.200,329.200 311.022,329.200 310.400 C 329.200 309.867,329.467 309.600,330.000 309.600 C 330.440 309.600,330.800 309.420,330.800 309.200 C 330.800 308.980,331.340 308.800,332.000 308.800 C 332.660 308.800,333.200 308.620,333.200 308.400 C 333.200 308.180,333.560 308.000,334.000 308.000 C 334.440 308.000,334.803 307.775,334.807 307.500 C 334.810 307.225,335.897 306.463,337.221 305.807 C 338.545 305.150,339.935 304.205,340.309 303.707 C 340.684 303.208,341.307 302.800,341.695 302.800 C 342.083 302.800,342.400 302.609,342.400 302.376 C 342.400 302.143,342.580 302.064,342.800 302.200 C 343.020 302.336,343.200 302.244,343.200 301.995 C 343.200 301.338,344.241 300.400,344.971 300.400 C 345.317 300.400,345.600 300.241,345.600 300.047 C 345.600 299.852,345.960 299.599,346.400 299.484 C 346.840 299.369,347.200 299.017,347.200 298.702 C 347.200 298.386,347.650 297.923,348.200 297.673 C 348.750 297.422,349.200 297.033,349.200 296.809 C 349.200 296.584,349.398 296.400,349.640 296.400 C 349.881 296.400,350.583 295.860,351.200 295.200 C 351.817 294.540,352.609 294.000,352.960 294.000 C 353.312 294.000,353.600 293.770,353.600 293.489 C 353.600 293.000,354.962 291.600,355.437 291.600 C 355.866 291.600,362.000 285.232,362.000 284.787 C 362.000 284.225,362.792 283.434,363.700 283.090 C 364.085 282.944,364.404 282.594,364.409 282.313 C 364.414 282.031,365.134 281.181,366.009 280.424 C 366.884 279.667,367.600 278.765,367.600 278.419 C 367.600 278.073,368.038 277.461,368.574 277.059 C 369.118 276.650,369.452 276.079,369.331 275.764 C 369.202 275.429,369.365 275.200,369.730 275.200 C 370.069 275.200,370.451 274.869,370.579 274.465 C 370.708 274.061,371.364 273.116,372.038 272.365 C 372.711 271.614,373.593 270.280,373.997 269.400 C 374.401 268.520,375.197 267.260,375.765 266.600 C 376.334 265.940,376.799 265.038,376.800 264.596 C 376.800 264.154,377.160 263.568,377.600 263.293 C 378.040 263.018,378.400 262.435,378.400 261.997 C 378.400 261.558,378.535 261.199,378.700 261.197 C 379.035 261.193,380.000 259.277,380.000 258.616 C 380.000 258.383,380.360 257.968,380.800 257.693 C 381.252 257.410,381.600 256.760,381.600 256.197 C 381.600 255.648,381.780 255.200,382.000 255.200 C 382.220 255.200,382.400 254.660,382.400 254.000 C 382.400 253.340,382.552 252.800,382.737 252.800 C 382.923 252.800,383.482 251.945,383.981 250.900 C 384.480 249.855,385.048 248.687,385.244 248.305 C 385.440 247.923,385.600 246.999,385.600 246.252 C 385.600 245.230,385.798 244.842,386.400 244.684 C 387.013 244.524,387.200 244.138,387.200 243.037 C 387.200 242.247,387.380 241.600,387.600 241.600 C 387.820 241.600,388.000 240.981,388.000 240.224 C 388.000 239.467,388.180 238.736,388.400 238.600 C 388.620 238.464,388.800 237.793,388.800 237.108 C 388.800 236.423,389.077 235.557,389.416 235.182 C 390.054 234.477,390.618 231.944,391.060 227.800 C 391.204 226.446,391.552 225.261,391.858 225.080 C 392.241 224.854,392.400 223.837,392.400 221.604 C 392.400 219.868,392.580 218.336,392.800 218.200 C 393.042 218.051,393.200 215.204,393.200 211.000 C 393.200 206.796,393.358 203.949,393.600 203.800 C 394.152 203.459,394.152 132.141,393.600 131.800 C 393.357 131.650,393.200 128.721,393.200 124.353 C 393.200 119.655,393.061 117.239,392.800 117.400 C 392.545 117.558,392.400 116.354,392.400 114.073 C 392.400 111.528,392.242 110.366,391.850 110.042 C 391.548 109.791,391.191 108.734,391.058 107.693 C 390.452 102.961,389.999 100.989,389.422 100.567 C 389.035 100.284,388.800 99.495,388.800 98.480 C 388.800 97.582,388.620 96.736,388.400 96.600 C 388.180 96.464,388.000 95.733,388.000 94.976 C 388.000 94.219,387.820 93.600,387.600 93.600 C 387.380 93.600,387.200 93.165,387.200 92.633 C 387.200 91.252,386.802 90.400,386.157 90.400 C 385.805 90.400,385.600 89.959,385.600 89.200 C 385.600 88.540,385.420 88.000,385.200 88.000 C 384.980 88.000,384.800 87.477,384.800 86.838 C 384.800 85.626,383.292 82.400,382.726 82.400 C 382.547 82.400,382.400 81.961,382.400 81.424 C 382.400 80.887,382.220 80.336,382.000 80.200 C 381.780 80.064,381.600 79.614,381.600 79.199 C 381.600 78.785,381.285 78.208,380.900 77.918 C 379.973 77.219,379.200 75.804,379.200 74.805 C 379.200 74.362,379.020 74.000,378.800 74.000 C 378.580 74.000,378.400 73.642,378.400 73.203 C 378.400 72.765,378.040 72.182,377.600 71.907 C 377.160 71.632,376.800 71.178,376.800 70.898 C 376.800 70.164,375.914 68.695,375.100 68.082 C 374.715 67.792,374.400 67.227,374.400 66.826 C 374.400 66.426,374.130 65.874,373.800 65.600 C 373.470 65.326,373.195 64.899,373.189 64.651 C 373.183 64.403,372.643 63.675,371.989 63.033 C 371.335 62.392,370.800 61.706,370.800 61.510 C 370.800 61.179,368.851 58.521,367.700 57.281 C 367.425 56.985,367.200 56.600,367.200 56.426 C 367.200 56.252,366.030 54.911,364.600 53.445 C 363.170 51.979,362.000 50.599,362.000 50.378 C 362.000 50.156,361.685 49.854,361.301 49.707 C 360.272 49.312,358.800 47.729,358.800 47.018 C 358.800 46.678,358.588 46.400,358.328 46.400 C 358.068 46.400,356.731 45.230,355.356 43.800 C 353.982 42.370,352.740 41.200,352.597 41.200 C 352.454 41.200,351.646 40.480,350.800 39.600 C 349.954 38.720,349.061 38.000,348.815 38.000 C 348.569 38.000,347.683 37.280,346.846 36.400 C 346.009 35.520,345.026 34.800,344.662 34.800 C 344.298 34.800,344.000 34.620,344.000 34.400 C 344.000 34.180,343.640 34.000,343.200 34.000 C 342.667 34.000,342.400 33.733,342.400 33.200 C 342.400 32.667,342.133 32.400,341.600 32.400 C 341.160 32.400,340.800 32.220,340.800 32.000 C 340.800 31.780,340.604 31.600,340.364 31.600 C 340.124 31.600,339.444 31.143,338.853 30.585 C 337.751 29.545,336.373 28.738,331.300 26.164 C 329.705 25.354,328.400 24.536,328.400 24.346 C 328.400 24.156,327.860 24.000,327.200 24.000 C 326.540 24.000,326.000 23.820,326.000 23.600 C 326.000 23.380,325.661 23.200,325.247 23.200 C 324.830 23.200,324.400 22.843,324.284 22.400 C 324.144 21.865,323.738 21.600,323.061 21.600 C 322.503 21.600,321.936 21.420,321.800 21.200 C 321.664 20.980,321.023 20.800,320.376 20.800 C 319.729 20.800,319.200 20.620,319.200 20.400 C 319.200 20.180,318.842 20.000,318.403 20.000 C 317.965 20.000,317.382 19.640,317.107 19.200 C 316.777 18.671,316.174 18.400,315.327 18.400 C 314.623 18.400,313.936 18.220,313.800 18.000 C 313.664 17.780,313.088 17.600,312.520 17.600 C 311.953 17.600,311.282 17.318,311.030 16.973 C 310.778 16.629,309.813 16.245,308.886 16.121 C 307.959 15.996,307.200 15.738,307.200 15.547 C 307.200 15.356,306.480 15.200,305.600 15.200 C 304.720 15.200,304.000 15.020,304.000 14.800 C 304.000 14.580,303.272 14.400,302.383 14.400 C 301.319 14.400,300.473 14.126,299.908 13.600 C 298.996 12.751,296.000 12.456,296.000 13.216 C 296.000 13.444,295.620 13.277,295.156 12.845 C 294.260 12.010,292.600 11.804,283.225 11.364 C 279.565 11.192,278.552 11.014,278.158 10.475 C 277.597 9.707,124.382 9.251,122.500 10.011 M282.000 34.022 C 319.089 38.638,351.099 62.814,363.532 95.600 C 364.940 99.313,366.132 102.715,366.406 103.800 C 366.572 104.460,367.154 106.710,367.699 108.800 C 368.725 112.735,369.204 115.265,370.084 121.400 C 370.841 126.680,370.828 207.999,370.069 214.000 C 369.461 218.809,368.694 222.895,367.594 227.200 C 367.172 228.850,366.716 230.650,366.580 231.200 C 366.444 231.750,366.187 232.560,366.008 233.000 C 365.829 233.440,365.101 235.420,364.390 237.400 C 359.938 249.790,349.479 265.856,340.550 274.017 C 321.580 291.355,301.492 300.214,278.000 301.602 C 274.810 301.791,260.640 301.957,246.512 301.972 L 220.824 302.000 218.512 303.048 C 217.240 303.625,215.120 304.597,213.800 305.208 C 212.480 305.820,210.140 306.896,208.600 307.600 C 207.060 308.304,204.720 309.380,203.400 309.992 C 202.080 310.603,200.010 311.554,198.800 312.105 C 197.590 312.656,195.250 313.739,193.600 314.512 C 191.950 315.285,188.800 316.730,186.600 317.722 C 184.400 318.714,180.980 320.283,179.000 321.208 C 174.148 323.474,170.999 324.927,168.600 326.003 C 167.500 326.496,165.160 327.581,163.400 328.414 C 161.640 329.246,158.220 330.827,155.800 331.927 C 153.380 333.027,149.960 334.595,148.200 335.411 C 144.657 337.055,141.238 338.624,138.200 340.000 C 137.100 340.498,134.670 341.623,132.800 342.499 C 130.930 343.376,128.500 344.499,127.400 344.996 C 126.300 345.493,124.165 346.479,122.656 347.187 C 118.955 348.922,118.887 348.607,121.660 342.600 C 122.981 339.740,124.432 336.590,124.884 335.600 C 125.655 333.912,126.387 332.329,129.596 325.400 C 130.309 323.860,131.516 321.250,132.278 319.600 C 133.040 317.950,134.082 315.700,134.593 314.600 C 135.105 313.500,136.098 311.340,136.800 309.800 C 137.502 308.260,138.510 306.083,139.038 304.961 C 140.496 301.871,140.723 302.003,133.900 301.972 C 121.443 301.916,113.732 301.192,106.000 299.352 C 88.326 295.147,74.094 287.401,59.450 274.017 C 50.521 265.856,40.062 249.790,35.610 237.400 C 34.899 235.420,34.171 233.440,33.992 233.000 C 33.813 232.560,33.556 231.750,33.420 231.200 C 33.284 230.650,32.828 228.850,32.406 227.200 C 31.298 222.867,30.552 218.812,29.938 213.800 C 29.173 207.545,29.154 126.717,29.916 121.400 C 30.796 115.265,31.275 112.735,32.301 108.800 C 32.846 106.710,33.428 104.460,33.594 103.800 C 33.868 102.713,35.071 99.283,36.469 95.600 C 48.851 62.978,80.464 38.995,117.600 34.048 C 121.516 33.527,277.819 33.502,282.000 34.022 M154.075 99.969 C 141.658 108.391,132.656 118.705,125.765 132.400 C 123.616 136.672,123.114 137.907,121.391 143.164 C 101.072 205.166,159.400 266.524,221.600 248.579 C 222.810 248.230,224.340 247.799,225.000 247.621 C 248.360 241.327,270.645 219.225,278.626 194.436 C 284.566 175.985,284.042 158.017,276.991 138.400 C 274.191 130.613,267.267 119.711,260.429 112.328 C 254.991 106.455,242.406 96.634,241.491 97.549 C 241.299 97.741,241.149 103.709,241.159 110.809 L 241.178 123.720 244.110 126.760 C 261.852 145.155,266.087 173.963,254.347 196.400 C 240.250 223.341,210.232 235.776,181.100 226.742 C 166.306 222.154,152.448 210.176,145.273 195.775 C 138.190 181.558,137.173 162.712,142.685 147.800 C 145.627 139.841,150.011 132.855,155.890 126.760 L 158.822 123.720 158.841 110.809 C 158.851 103.709,158.701 97.741,158.509 97.549 C 158.308 97.348,156.411 98.384,154.075 99.969 M199.300 140.676 C 199.685 140.776,200.315 140.776,200.700 140.676 C 201.085 140.575,200.770 140.493,200.000 140.493 C 199.230 140.493,198.915 140.575,199.300 140.676 " stroke="none" fill="#abcc45" fill-rule="evenodd"></path><path id="path1" d="M197.333 76.760 C 193.981 77.621,191.197 80.138,189.872 83.508 C 188.736 86.395,188.878 131.449,190.031 134.000 C 193.185 140.984,202.501 142.749,207.678 137.343 C 210.909 133.970,210.781 135.148,210.791 108.708 C 210.801 82.929,210.858 83.594,208.362 80.380 C 206.137 77.514,200.984 75.823,197.333 76.760 M97.200 339.953 C 97.200 340.393,97.380 340.864,97.600 341.000 C 97.820 341.136,98.000 340.887,98.000 340.447 C 98.000 340.007,97.820 339.536,97.600 339.400 C 97.380 339.264,97.200 339.513,97.200 339.953 " stroke="none" fill="#f35c3c" fill-rule="evenodd"></path><path id="path2" d="M117.600 34.048 C 80.464 38.995,48.851 62.978,36.469 95.600 C 35.071 99.283,33.868 102.713,33.594 103.800 C 33.428 104.460,32.846 106.710,32.301 108.800 C 31.275 112.735,30.796 115.265,29.916 121.400 C 29.154 126.717,29.173 207.545,29.938 213.800 C 30.552 218.812,31.298 222.867,32.406 227.200 C 32.828 228.850,33.284 230.650,33.420 231.200 C 33.556 231.750,33.813 232.560,33.992 233.000 C 34.171 233.440,34.899 235.420,35.610 237.400 C 40.062 249.790,50.521 265.856,59.450 274.017 C 68.390 282.187,76.376 287.710,85.600 292.100 C 101.175 299.513,112.739 301.877,133.900 301.972 C 140.723 302.003,140.496 301.871,139.038 304.961 C 138.510 306.083,137.502 308.260,136.800 309.800 C 136.098 311.340,135.105 313.500,134.593 314.600 C 134.082 315.700,133.040 317.950,132.278 319.600 C 131.516 321.250,130.309 323.860,129.596 325.400 C 126.387 332.329,125.655 333.912,124.884 335.600 C 124.432 336.590,122.981 339.740,121.660 342.600 C 118.887 348.607,118.955 348.922,122.656 347.187 C 124.165 346.479,126.300 345.493,127.400 344.996 C 128.500 344.499,130.930 343.376,132.800 342.499 C 134.670 341.623,137.100 340.498,138.200 340.000 C 141.238 338.624,144.657 337.055,148.200 335.411 C 149.960 334.595,153.380 333.027,155.800 331.927 C 158.220 330.827,161.640 329.246,163.400 328.414 C 165.160 327.581,167.500 326.496,168.600 326.003 C 170.999 324.927,174.148 323.474,179.000 321.208 C 180.980 320.283,184.400 318.714,186.600 317.722 C 188.800 316.730,191.950 315.285,193.600 314.512 C 195.250 313.739,197.590 312.656,198.800 312.105 C 200.010 311.554,202.080 310.603,203.400 309.992 C 204.720 309.380,207.060 308.304,208.600 307.600 C 210.140 306.896,212.480 305.820,213.800 305.208 C 215.120 304.597,217.240 303.625,218.512 303.048 L 220.824 302.000 246.512 301.972 C 279.275 301.937,284.301 301.660,294.000 299.352 C 311.674 295.147,325.906 287.401,340.550 274.017 C 349.479 265.856,359.938 249.790,364.390 237.400 C 365.101 235.420,365.829 233.440,366.008 233.000 C 366.187 232.560,366.444 231.750,366.580 231.200 C 366.716 230.650,367.172 228.850,367.594 227.200 C 368.694 222.895,369.461 218.809,370.069 214.000 C 370.828 207.999,370.841 126.680,370.084 121.400 C 369.204 115.265,368.725 112.735,367.699 108.800 C 367.154 106.710,366.572 104.460,366.406 103.800 C 366.132 102.715,364.940 99.313,363.532 95.600 C 351.099 62.814,319.089 38.638,282.000 34.022 C 277.819 33.502,121.516 33.527,117.600 34.048 M205.387 77.771 C 210.857 80.977,210.800 80.654,210.800 108.646 L 210.800 132.427 209.801 134.399 C 205.529 142.828,194.471 142.828,190.199 134.399 L 189.200 132.427 189.200 108.646 C 189.200 82.407,189.124 83.253,191.761 80.119 C 194.897 76.392,201.185 75.309,205.387 77.771 M158.841 110.809 L 158.822 123.720 155.890 126.760 C 140.150 143.079,134.998 166.886,142.439 188.917 C 153.900 222.848,194.208 239.470,226.600 223.622 C 243.427 215.389,254.877 200.891,259.675 181.742 C 260.884 176.918,261.016 161.588,259.890 156.800 C 256.880 143.995,252.271 135.221,244.110 126.760 L 241.178 123.720 241.159 110.809 C 241.149 103.709,241.299 97.741,241.491 97.549 C 242.406 96.634,254.991 106.455,260.429 112.328 C 267.267 119.711,274.191 130.613,276.991 138.400 C 283.328 156.031,284.358 171.316,280.347 188.236 C 273.804 215.842,250.619 240.718,225.000 247.621 C 224.340 247.799,222.810 248.230,221.600 248.579 C 159.400 266.524,101.072 205.166,121.391 143.164 C 123.114 137.907,123.616 136.672,125.765 132.400 C 130.015 123.953,133.809 118.481,140.024 111.838 C 145.248 106.254,157.637 96.677,158.509 97.549 C 158.701 97.741,158.851 103.709,158.841 110.809 " stroke="none" fill="#fbfbfb" fill-rule="evenodd"></path></g></svg>