<svg xmlns="http://www.w3.org/2000/svg" xmlns:xlink="http://www.w3.org/1999/xlink" viewBox="0 0 64 64">
  <defs>
    <path id="b" d="M52.5968293 20.8792219l.0060158.0094865a54.88627861 54.88627861 0 0 0-.0030086-.0047427 62.25256027 62.25256027 0 0 0-.0030072-.0047438zM18.0701317 2.27327151c1.8488166 1.04693238 3.5964185 2.37153218 5.0888873 3.84380055 2.4057974-.44426787 4.8864578-.66829499 7.4030524-.66829499 7.5336135 0 14.6761427 2.01498197 20.1105976 5.67261913 2.8142499 1.8950801 5.0511564 4.1435552 6.6478345 6.683581C59.0986495 20.6352916 60 23.6789052 60 26.9402352c0 3.1736124-.9013505 6.2184881-2.6794965 9.0481715-1.5966781 2.5412879-3.8335846 4.7891319-6.6478345 6.684212-5.4344549 3.6576372-12.5763852 5.671357-20.1105976 5.671357-2.5165946 0-4.9966561-.2240271-7.4030524-.6676639-1.4930677 1.4716373-3.2400707 2.7968681-5.0888873 3.8438005C8.19180899 56.5641934 0 51.638752 0 51.638752s7.61626224-6.592708 6.37772876-12.3719766c-3.4077638-3.5610847-5.25418485-7.8560948-5.25418485-12.4129957 0-4.4710765 1.84701996-8.7660866 5.25418485-12.3278023C7.61605716 8.74829665.00252205 2.15681509 6.3e-7 2.15463234c.00243608-.00146559 8.19327752-4.92532268 18.07013107.11863917zM12.1617249 36.8828377c.9535649 3.1010866.3949246 6.5962718-1.675921 10.4855555-.0990736.1860716-.1913618.3742694-.2915859.5600486 1.7766537-.1515808 3.5724085-.6483592 5.3909295-1.5588996 1.371962-.7874304 2.6881752-1.7866971 3.8111477-2.8909174l2.0667191-2.0322075c2.8268721.776453 5.9283366 1.2051709 9.1816138 1.2051709 13.200062 0 23.9008264-7.0579968 23.9008264-15.764477 0-8.7064803-10.7007644-15.764477-23.9008264-15.764477-13.200062 0-23.90082645 7.0579967-23.90082645 15.764477 0 3.7942172 2.03223505 7.2753627 5.41792325 9.9957265z"/>
    <filter id="a" width="111.1%" height="111.2%" x="-6.1%" y="-5.6%" filterUnits="objectBoundingBox">
      <feMorphology in="SourceAlpha" operator="dilate" radius=".5" result="shadowSpreadOuter1"/>
      <feOffset in="shadowSpreadOuter1" result="shadowOffsetOuter1"/>
      <feGaussianBlur in="shadowOffsetOuter1" result="shadowBlurOuter1" stdDeviation=".5"/>
      <feColorMatrix in="shadowBlurOuter1" values="0 0 0 0 0 0 0 0 0 0 0 0 0 0 0 0 0 0 0.05 0"/>
    </filter>
    <path id="c" d="M19.0811772 30.2143846c-1.9302871 0-3.495094-1.6072207-3.495094-3.5898279s1.5648069-3.5898279 3.495094-3.5898279c1.930287 0 3.4950939 1.6072207 3.4950939 3.5898279s-1.5648069 3.5898279-3.4950939 3.5898279zm11.2524975 0c-1.9302871 0-3.495094-1.6072207-3.495094-3.5898279s1.5648069-3.5898279 3.495094-3.5898279c1.930287 0 3.4950939 1.6072207 3.4950939 3.5898279s-1.5648069 3.5898279-3.4950939 3.5898279zm11.2524975 0c-1.9302871 0-3.495094-1.6072207-3.495094-3.5898279s1.5648069-3.5898279 3.495094-3.5898279c1.930287 0 3.4950939 1.6072207 3.4950939 3.5898279s-1.5648069 3.5898279-3.4950939 3.5898279z"/>
    <filter id="d" width="103.4%" height="113.9%" x="-1.7%" y="-7%" filterUnits="objectBoundingBox">
      <feGaussianBlur in="SourceAlpha" result="shadowBlurInner1" stdDeviation=".5"/>
      <feOffset in="shadowBlurInner1" result="shadowOffsetInner1"/>
      <feComposite in="shadowOffsetInner1" in2="SourceAlpha" k2="-1" k3="1" operator="arithmetic" result="shadowInnerInner1"/>
      <feColorMatrix in="shadowInnerInner1" values="0 0 0 0 0 0 0 0 0 0 0 0 0 0 0 0 0 0 0.1 0"/>
    </filter>
  </defs>
  <g fill="none" fill-rule="nonzero">
    <g transform="translate(2 5)">
      <use fill="#000" filter="url(#a)" xlink:href="#b"/>
      <use fill="#DB2323" xlink:href="#b"/>
    </g>
    <path fill="#FFF" d="M14.1617249 41.8828377c-3.3856882-2.7203638-5.41792325-6.2015093-5.41792325-9.9957265 0-8.7064803 10.70076445-15.764477 23.90082645-15.764477s23.9008264 7.0579967 23.9008264 15.764477c0 8.7064802-10.7007644 15.764477-23.9008264 15.764477-3.2532772 0-6.3547417-.4287179-9.1816138-1.2051709l-2.0667191 2.0322075c-1.1229725 1.1042203-2.4391857 2.103487-3.8111477 2.8909174-1.818521.9105404-3.6142758 1.4073188-5.3909295 1.5588996.1002241-.1857792.1925123-.373977.2915859-.5600486 2.0708456-3.8892837 2.6294859-7.3844689 1.675921-10.4855555z"/>
    <g transform="translate(2 5)">
      <use fill="#DB2323" xlink:href="#c"/>
      <use fill="#000" filter="url(#d)" xlink:href="#c"/>
    </g>
  </g>
</svg>
