<svg id="icon" viewBox="0 0 256 256" version="1.1" xmlns="http://www.w3.org/2000/svg" xmlns:xlink="http://www.w3.org/1999/xlink">
	<defs>
		<clipPath id="icon-bubble-mask" clipPathUnits="objectBoundingBox">
			<path d="M41.6969487,124.026456 C30.0889845,114.878649 23.1213873,103.17255 23.1213873,90.4136809 C23.1213873,61.1362728 59.8093762,37.4022441 105.066304,37.4022441 C150.323232,37.4022441 187.011221,61.1362728 187.011221,90.4136809 C187.011221,119.691089 150.323232,143.425118 105.066304,143.425118 C93.912316,143.425118 83.2788238,141.983462 73.5867827,139.372472 L66.5009556,146.206206 C62.6508003,149.919383 58.1381119,153.279632 53.4342869,155.927536 C47.1994165,158.989423 41.0426011,160.659947 34.9512744,161.16967 C35.2948967,160.544948 35.6113103,159.912092 35.9509881,159.286387 C43.0509631,146.207835 44.9662833,134.454525 41.6969487,124.026456 Z" fill="#FFF" />
		</clipPath>
	</defs>

	<g class="logo" transform="translate(0, 15) scale(1.23)" stroke="none" stroke-width="1" fill="none" fill-rule="evenodd">
		<path class="baloon" fill="#DB2323" fill-rule="evenodd" d="M180.330283,70.2108641 L180.333892,70.2165073 C180.333291,70.2155668 180.332689,70.2146264 180.332087,70.213686 C180.331486,70.2127454 180.330884,70.2118047 180.330283,70.2108641 Z M61.954152,7.64436327 C68.2928921,11.164898 74.2846134,15.6191491 79.4016009,20.5699674 C87.6499712,19.0760214 96.1550122,18.3226821 104.783255,18.3226821 C130.612543,18.3226821 155.100983,25.0984914 173.733224,37.3980812 C183.38199,43.7706948 191.051311,51.3316745 196.525584,59.8730564 C202.622027,69.3905961 205.712343,79.6253998 205.712343,90.5923218 C205.712343,101.264274 202.622027,111.503322 196.525584,121.01874 C191.051311,129.564366 183.38199,137.123224 173.733224,143.495837 C155.100983,155.795427 130.614597,162.566992 104.783255,162.566992 C96.1550122,162.566992 87.6520245,161.813653 79.4016009,160.321829 C74.28256,165.270525 68.2928921,169.726898 61.954152,173.247433 C28.085937,190.209238 0,173.646385 0,173.646385 C0,173.646385 26.1126525,151.476989 21.8662921,132.042958 C10.1826408,120.068047 3.85211418,105.625154 3.85211418,90.3015965 C3.85211418,75.2666424 10.1846942,60.8237493 21.8662921,48.846716 C26.1119493,29.4180247 0.00864693756,7.25275357 2.14766577e-06,7.24541359 C0.00835435701,7.24048522 28.0909741,-9.31704081 61.954152,7.64436327 Z
		M41.6969487,124.026456 C30.0889845,114.878649 23.1213873,103.17255 23.1213873,90.4136809 C23.1213873,61.1362728 59.8093762,37.4022441 105.066304,37.4022441 C150.323232,37.4022441 187.011221,61.1362728 187.011221,90.4136809 C187.011221,119.691089 150.323232,143.425118 105.066304,143.425118 C93.912316,143.425118 83.2788238,141.983462 73.5867827,139.372472 L66.5009556,146.206206 C62.6508003,149.919383 58.1381119,153.279632 53.4342869,155.927536 C47.1994165,158.989423 41.0426011,160.659947 34.9512744,161.16967 C35.2948967,160.544948 35.6113103,159.912092 35.9509881,159.286387 C43.0509631,146.207835 44.9662833,134.454525 41.6969487,124.026456 Z" />
		<path class="bubble" fill="#ffffff" fill-rule="evenodd" d="M41.6969487,124.026456 C30.0889845,114.878649 23.1213873,103.17255 23.1213873,90.4136809 C23.1213873,61.1362728 59.8093762,37.4022441 105.066304,37.4022441 C150.323232,37.4022441 187.011221,61.1362728 187.011221,90.4136809 C187.011221,119.691089 150.323232,143.425118 105.066304,143.425118 C93.912316,143.425118 83.2788238,141.983462 73.5867827,139.372472 L66.5009556,146.206206 C62.6508003,149.919383 58.1381119,153.279632 53.4342869,155.927536 C47.1994165,158.989423 41.0426011,160.659947 34.9512744,161.16967 C35.2948967,160.544948 35.6113103,159.912092 35.9509881,159.286387 C43.0509631,146.207835 44.9662833,134.454525 41.6969487,124.026456 Z" />
		<path class="circles" fill="#DB2323" fill-rule="nonzero" d="M65.7703624,103.026182 C59.1169113,103.026182 53.7232234,97.5458181 53.7232234,90.7854471 C53.7232234,84.0250762 59.1169113,78.5447127 65.7703624,78.5447127 C72.4238136,78.5447127 77.8175014,84.0250762 77.8175014,90.7854471 C77.8175014,97.5458181 72.4238136,103.026182 65.7703624,103.026182 Z M104.556273,103.026182 C97.9028222,103.026182 92.5091344,97.5458181 92.5091344,90.7854471 C92.5091344,84.0250762 97.9028222,78.5447127 104.556273,78.5447127 C111.209725,78.5447127 116.603412,84.0250762 116.603412,90.7854471 C116.603412,97.5458181 111.209725,103.026182 104.556273,103.026182 Z M143.342184,103.026182 C136.688733,103.026182 131.295045,97.5458181 131.295045,90.7854471 C131.295045,84.0250762 136.688733,78.5447127 143.342184,78.5447127 C149.995636,78.5447127 155.389323,84.0250762 155.389323,90.7854471 C155.389323,97.5458181 149.995636,103.026182 143.342184,103.026182 Z" />
	</g>

	<g class="badge" style="display: none">
		<circle cx="189" cy="64" r="64" fill="#bc2031" />
		<text x="189" y="112" text-anchor="middle" fill="#ffffff" style="font: caption; font-size: 128px"></text>
	</g>

	<g class="status">
		<circle cx="220" cy="220" r="24" style="display: none" />
		<path class="away" fill="#DB2323" d="M128 70C96 70 70 96 70 128s26 58 58 58c32 0 58-26 58-58S160 70 128 70zM128 171c-24 0-43-19-43-43S104 85 128 85s43 19 43 43S152 171 128 171zM164 128c0 4-3 7-7 7H128c-4 0-7-3-7-7V99c0-4 3-7 7-7s7 3 7 7v22h22C161 121 164 124 164 128z" style="display: none" />
		<path class="busy" fill="#DB2323" d="M128 70c-32 0-58 26-58 58s26 58 58 58 58-26 58-58-26-58-58-58zm43 58c0 9-3 18-8 25l-60-60c7-5 16-8 25-8 24 0 43 19 43 43zm-86 0c0-9 3-18 8-25l60 60c-7 5-16 8-25 8-24 0-43-19-43-43z" style="display: none" />
	</g>
</svg>
